<svg width="400" height="511" viewBox="0 0 400 511" fill="none" xmlns="http://www.w3.org/2000/svg">
<g clip-path="url(#clip0)">
<path d="M157.519 51.3605C173.992 51.3605 187.346 41.0937 187.346 28.429C187.346 15.7644 173.992 5.4976 157.519 5.4976C141.047 5.4976 127.693 15.7644 127.693 28.429C127.693 41.0937 141.047 51.3605 157.519 51.3605Z" fill="#3F3D56"/>
<path d="M217.172 148.376C240.893 148.376 260.122 129.422 260.122 106.04C260.122 82.6587 240.893 63.7042 217.172 63.7042C193.451 63.7042 174.222 82.6587 174.222 106.04C174.222 129.422 193.451 148.376 217.172 148.376Z" fill="#3F3D56"/>
<path d="M353.472 492.059C359.4 492.059 364.206 487.322 364.206 481.479C364.206 475.635 359.4 470.898 353.472 470.898C347.544 470.898 342.738 475.635 342.738 481.479C342.738 487.322 347.544 492.059 353.472 492.059Z" fill="#88D4FE"/>
<path d="M297.405 492.059C303.333 492.059 308.139 487.322 308.139 481.479C308.139 475.635 303.333 470.898 297.405 470.898C291.477 470.898 286.671 475.635 286.671 481.479C286.671 487.322 291.477 492.059 297.405 492.059Z" fill="#88D4FE"/>
<path d="M314.107 226.291H309.334V356.241H314.107V226.291Z" fill="#88D4FE"/>
<path d="M339.754 226.291H334.981V356.241H339.754V226.291Z" fill="#88D4FE"/>
<path d="M310.499 229.818L309.304 226.291C309.304 226.291 322.428 211.006 340.919 223.328L339.724 228.625H334.951C334.951 228.625 327.201 222.216 314.077 229.537L310.499 229.818Z" fill="#88D4FE"/>
<path d="M230.296 207.768H187.346V261.863H230.296V207.768Z" fill="#FFCFCF"/>
<path d="M260.122 192.476H246.998V218.349H260.122V192.476Z" fill="#FBBEBE"/>
<path d="M193.013 470.898L187.646 486.776C187.646 486.776 185.256 498.535 193.013 499.12C200.77 499.705 213.308 497.356 213.308 497.356C213.308 497.356 215.097 492.066 213.308 487.361C211.519 482.657 206.152 469.72 206.152 469.72L193.013 470.898Z" fill="#8C3333"/>
<path d="M233.573 471.484C233.573 471.484 225.222 492.066 231.784 495.593C238.346 499.12 247.299 496.178 254.455 499.12C261.61 502.061 281.297 495.008 281.297 495.008C281.297 495.008 283.687 488.539 270.563 486.776C270.563 486.776 256.281 476.188 256.281 473.84C256.281 471.491 247.93 471.484 247.93 471.484H233.573Z" fill="#8C3333"/>
<path d="M231.784 236.879C231.784 236.879 182.873 246.874 176.913 243.933C170.952 240.991 164.984 283.942 164.984 283.942C164.984 283.942 162.593 309.815 170.944 344.505C179.295 379.195 170.944 396.251 170.944 396.251C170.944 396.251 172.139 429.177 181.092 444.47C190.044 459.762 190.037 473.869 190.037 473.869C190.037 473.869 207.325 475.633 207.934 471.513C207.934 471.513 200.77 455.05 201.966 439.765C203.161 424.48 198.388 395.073 198.388 395.073C198.388 395.073 206.145 358.027 204.95 343.949C203.755 329.872 209.129 299.85 212.106 305.14C215.082 310.43 222.847 336.303 222.847 341.601C222.847 346.898 225.854 382.166 227.62 384.522C229.386 386.878 228.808 393.932 228.214 397.458C227.62 400.985 227.62 427.443 230.597 441.558C233.573 455.672 231.198 471.543 231.792 473.899C232.386 476.255 249.689 474.484 250.283 470.365C250.283 470.365 252.673 445.085 253.868 441.558C255.063 438.031 255.627 393.28 255.627 393.28C255.627 393.28 256.815 358.59 258.01 355.063C259.205 351.536 261.017 275.681 253.237 266.894C245.457 258.106 248.464 235.731 248.464 235.731L231.784 236.879Z" fill="#E77979"/>
<path d="M191.578 134.447C189.368 138.552 187.143 142.694 185.76 147.146C184.377 151.599 183.896 156.423 185.196 160.898C186.126 163.693 187.42 166.358 189.044 168.826C190.337 171.184 191.975 173.341 193.908 175.227C198.418 179.287 204.972 180.103 211.061 180.74C212.105 180.912 213.172 180.894 214.21 180.688C215.043 180.449 215.812 180.035 216.465 179.473C219.134 177.25 220.344 173.857 221.321 170.582C223.645 162.793 225.31 154.828 226.297 146.769C226.526 145.494 226.526 144.19 226.297 142.916C225.771 140.693 223.967 138.967 222.659 137.055C221.093 134.771 220.198 132.104 220.073 129.35C220.021 128.009 220.073 126.527 219.216 125.504C218.646 124.948 217.955 124.527 217.194 124.274C213.639 122.792 210.091 121.311 206.528 119.888C204.378 119.014 200.515 116.687 198.26 118.406C196.328 119.888 197.26 123.326 196.433 125.386C195.163 128.512 193.171 131.483 191.578 134.447Z" fill="#FBBEBE"/>
<path opacity="0.1" d="M191.578 134.447C189.368 138.552 187.143 142.694 185.76 147.146C184.377 151.599 183.896 156.423 185.196 160.898C186.126 163.693 187.42 166.358 189.044 168.826C190.337 171.184 191.975 173.341 193.908 175.227C198.418 179.287 204.972 180.103 211.061 180.74C212.105 180.912 213.172 180.894 214.21 180.688C215.043 180.449 215.812 180.035 216.465 179.473C219.134 177.25 220.344 173.857 221.321 170.582C223.645 162.793 225.31 154.828 226.297 146.769C226.526 145.494 226.526 144.19 226.297 142.916C225.771 140.693 223.967 138.967 222.659 137.055C221.093 134.771 220.198 132.104 220.073 129.35C220.021 128.009 220.073 126.527 219.216 125.504C218.646 124.948 217.955 124.527 217.194 124.274C213.639 122.792 210.091 121.311 206.528 119.888C204.378 119.014 200.515 116.687 198.26 118.406C196.328 119.888 197.26 123.326 196.433 125.386C195.163 128.512 193.171 131.483 191.578 134.447Z" fill="#FBBEBE"/>
<path d="M215.082 135.744C226.615 135.744 235.964 126.529 235.964 115.161C235.964 103.793 226.615 94.5783 215.082 94.5783C203.55 94.5783 194.201 103.793 194.201 115.161C194.201 126.529 203.55 135.744 215.082 135.744Z" fill="#FFCFCF"/>
<path d="M222.411 167.07C218.457 168.47 214.376 169.678 210.174 169.826C207.026 169.857 203.886 169.526 200.816 168.841C194.473 167.597 188.243 165.845 182.189 163.602C180.896 166.114 180.551 168.981 180.438 171.797C180.115 180.31 181.836 188.756 182.497 197.255C183.332 208.057 182.497 219.097 185.316 229.559C185.479 227.781 186.181 226.092 187.331 224.713C188.289 223.695 189.434 222.866 190.706 222.268C196.394 219.37 202.945 218.566 209.182 220.001C212.797 220.846 216.638 222.424 220.066 221.009C222.11 220.157 223.591 218.364 224.726 216.482C226.653 213.086 228.028 209.413 228.8 205.598C231.055 195.788 231.356 185.645 231.626 175.583C231.702 172.893 232.874 164.899 230.612 162.928C229.026 161.557 228.56 163.513 227.417 164.536C225.931 165.692 224.231 166.553 222.411 167.07Z" fill="#F2F2F2"/>
<path d="M193.021 131.735C191.63 130.661 189.571 130.994 188.037 131.906C186.504 132.817 185.264 134.077 183.708 134.906C179.393 137.211 173.598 135.521 169.501 138.204C165.653 140.73 164.991 145.931 164.69 150.481C163.939 162.039 163.292 173.679 160.474 184.926C159.722 187.89 158.82 190.927 159.106 193.98C159.33 195.724 159.749 197.438 160.353 199.092L164.051 210.48C165.765 215.77 167.502 221.142 167.682 226.691C167.862 232.241 166.539 237.516 165.224 242.814C162.624 253.25 160.932 263.887 160.165 274.607C159.932 278.156 159.835 281.86 161.293 285.113C162.796 288.514 165.848 291.04 169.065 292.959C172.282 294.878 175.778 296.36 178.927 298.398C185.249 302.495 190.322 308.948 197.719 310.63C201.109 311.371 204.657 311.075 208.069 310.423C208.069 310.423 206.137 223.943 200.763 211.592C195.388 199.24 190.623 145.739 190.623 143.975C190.623 142.212 193.021 131.735 193.021 131.735Z" fill="#E5A285"/>
<path d="M222.05 134.566C222.05 134.566 250.275 134.566 254.455 149.266C258.634 163.965 242.526 188.075 242.526 188.075C242.526 188.075 249.088 235.701 252.064 240.406C255.041 245.111 253.861 254.483 253.861 254.483C256.022 260.935 256.431 267.832 255.048 274.488C252.666 285.068 243.713 303.888 243.713 303.888C243.713 303.888 231.784 303.888 228.8 310.941C225.816 317.995 225.222 280.364 225.222 280.364C225.222 280.364 214.488 211.569 215.082 207.457C215.676 203.345 218.66 169.233 219.855 159.824C221.05 150.414 223.651 138.092 222.05 134.566Z" fill="#E6A285"/>
<path d="M243.713 143.975C243.713 143.975 257.439 148.087 257.439 152.792C257.439 157.497 261.64 182.777 261.64 191.009C261.64 199.24 259.852 200.418 261.64 203.36C263.429 206.301 242.556 205.123 242.556 205.123L238.76 171.612L243.713 143.975Z" fill="#E5A285"/>
<path d="M158.414 253.342L150.063 327.434C150.063 327.434 147.056 362.717 138.134 370.356C138.134 370.356 138.134 381.529 135.127 385.055L130.948 431.511C130.948 431.511 136.916 448.552 136.322 451.516C135.729 454.479 138.705 463.86 138.111 465.038C137.518 466.216 109.473 465.038 109.473 465.038L115.441 370.37L133.932 238.665L158.414 253.342Z" fill="#DCDAFD"/>
<path d="M162.586 186.311C162.586 186.311 189.435 188.075 194.208 184.541C198.981 181.006 219.261 189.245 221.05 193.95C222.839 198.655 192.412 199.24 187.646 199.24C182.881 199.24 160.203 206.301 160.203 206.301L162.586 186.311Z" fill="#F0D8DC"/>
<path opacity="0.1" d="M160.941 253.499L152.59 327.59C152.59 327.59 149.583 362.873 140.661 370.512C140.661 370.512 140.661 381.685 137.654 385.212L133.475 431.667C133.475 431.667 139.443 448.708 138.85 451.672C138.256 454.636 141.232 464.016 140.639 465.194C140.045 466.372 112 465.194 112 465.194L117.968 370.527L136.459 238.821L160.941 253.499Z" fill="black"/>
<path d="M107.316 460.207C107.316 460.207 94.8004 491.325 101.302 495.03C107.804 498.734 176.364 496.097 176.364 496.097C176.364 496.097 187.782 489.132 174.733 484.301C174.733 484.301 163.849 483.768 156.783 479.478C149.717 475.188 141.547 467.149 141.547 467.149C141.547 467.149 141.005 455.354 136.653 458.036C135.351 458.881 134.243 459.986 133.401 461.278C132.558 462.571 131.999 464.023 131.76 465.541L107.316 460.207Z" fill="#AE4D2E"/>
<path d="M88.0053 469.72C88.0053 469.72 74.2873 503.802 81.4432 507.937C88.5991 512.071 163.766 509.115 163.766 509.115C163.766 509.115 176.296 501.476 161.977 496.178C161.977 496.178 150.048 495.593 142.291 490.888C134.533 486.183 125.589 477.344 125.589 477.344C125.589 477.344 124.995 464.408 120.222 467.349C118.793 468.276 117.578 469.487 116.653 470.905C115.729 472.322 115.116 473.915 114.855 475.581L88.0053 469.72Z" fill="#AE4D2E"/>
<path d="M143.501 250.986C143.501 250.986 136.939 311.549 133.955 324.485C132.079 333.004 130.882 341.655 130.377 350.358C130.377 350.358 129.783 369.178 124.409 374.468C122.84 375.999 121.608 377.831 120.788 379.852C119.968 381.872 119.579 384.036 119.643 386.211C119.643 386.211 114.269 445.596 117.253 452.657C120.237 459.718 123.221 465.593 120.259 470.291C117.298 474.988 84.4649 474.996 84.4649 471.469C84.4649 467.942 84.4649 465.001 82.676 463.237C80.887 461.474 82.676 450.301 82.676 450.301C82.676 450.301 75.5201 397.97 82.0821 382.684C88.6442 367.399 91.6283 325.634 91.6283 325.634C91.6283 325.634 86.8552 278.008 80.887 270.361C74.9187 262.715 82.0821 235.671 82.0821 235.671L143.501 250.986Z" fill="#DCDAFD"/>
<path d="M126.709 62.9114C127.4 64.4673 129.061 65.3342 130.572 66.1566C139.329 70.9133 146.658 77.8113 153.874 84.6277C152.073 78.605 152.458 72.1517 154.964 66.3789C155.821 64.4155 156.956 62.2964 156.339 60.2441C155.881 58.7623 154.58 57.6361 153.333 56.6729C150.386 54.4267 147.306 52.3559 144.11 50.4714C141.855 49.1525 137.285 45.648 134.721 46.0259C134.586 49.4415 134.518 52.4941 133 55.6578C132.624 56.4432 126.972 63.5041 126.709 62.9114Z" fill="#F0D8DC"/>
<path d="M157.219 70.4688C170.727 70.4688 181.678 59.6746 181.678 46.3593C181.678 33.044 170.727 22.2498 157.219 22.2498C143.71 22.2498 132.76 33.044 132.76 46.3593C132.76 59.6746 143.71 70.4688 157.219 70.4688Z" fill="#F0D8DC"/>
<path d="M158.414 103.403C158.414 103.403 162.586 82.8199 150.657 75.7663C138.728 68.7128 125.01 60.4812 125.01 60.4812C125.01 60.4812 120.831 59.8884 119.042 68.7128C119.042 68.7128 85.0437 75.181 81.4582 106.929C77.8728 138.678 83.8485 185.133 83.8485 185.133C83.8485 185.133 78.4816 225.706 71.9196 247.459C71.9196 247.459 66.5451 252.164 90.4106 245.111C114.276 238.057 156.024 265.116 156.024 265.116C156.024 265.116 160.203 260.996 160.203 258.055C160.203 255.113 164.976 238.05 164.976 238.05C164.976 238.05 169.148 165.729 170.937 157.497C172.726 149.265 163.781 104.581 158.414 103.403Z" fill="#739757"/>
<path d="M121.432 143.975C121.432 143.975 154.235 125.156 147.673 101.047C141.111 76.937 126.799 69.2981 126.799 69.2981C126.799 69.2981 103.535 61.6518 83.8485 86.3393L85.0437 97.5123C85.0437 97.5123 106.519 54.5909 129.783 81.6344C153.047 108.678 121.432 143.975 121.432 143.975Z" fill="#DCDAFD"/>
<path d="M86.2313 87.5247V183.94L80.1353 216.83L77.2865 232.159H56.4352L27.2104 221.572V150.444C27.2104 150.444 51.6621 102.81 59.4193 93.993C67.1765 85.176 86.2313 87.5247 86.2313 87.5247Z" fill="#DCDAFD"/>
<path opacity="0.1" d="M80.1278 216.837L77.2865 232.167H56.4051L27.1803 221.587L80.1278 216.837Z" fill="black"/>
<path d="M79.0754 196.299L130.377 134.558L85.0362 198.655L80.2631 199.826L79.0754 196.299Z" fill="#DCDAFD"/>
<path d="M151.454 48.8488C152.844 47.9226 154.588 47.7522 156.257 47.5892C157.925 47.4262 159.669 47.2039 161 46.1963C163.307 44.4477 163.48 41.0691 165.171 38.7352C167.614 35.3492 172.493 34.9417 176.71 35.1047C179.288 35.2085 182.061 35.364 184.226 33.9933C186.391 32.6226 187.458 29.9183 188.21 27.4214C189.105 24.4577 189.676 20.842 187.458 18.6489C185.955 17.1226 183.52 16.8189 181.821 15.4778C180.122 14.1367 179.333 11.8325 178.378 9.82458C177.288 7.37176 175.565 5.24365 173.38 3.65273C170.178 1.42998 166.089 0.970607 162.187 1.00765C158.286 1.0447 154.37 1.55593 150.499 1.08174C147.327 0.696466 144.162 -0.340817 141.005 0.118553C136.976 0.703879 133.647 3.7046 131.655 7.20914C129.663 10.7137 128.821 14.7146 127.994 18.6415L125.739 29.333C125.047 32.6523 124.348 36.0531 124.882 39.3946C125.995 46.3296 132.218 51.8421 132.647 58.8438C133.056 56.9094 133.946 55.1054 135.237 53.5937C136.528 52.082 138.179 50.9099 140.043 50.1824C140.51 49.9579 141.038 49.8927 141.547 49.9972C142.163 50.1972 142.524 50.8048 142.915 51.316C143.937 52.6571 147.146 54.6872 148.928 53.7388C150.627 52.8868 149.409 50.2195 151.454 48.8488Z" fill="#3F3D56"/>
<path d="M307.545 348.01C307.545 348.01 291.437 348.595 289.054 366.821C286.671 385.048 289.054 469.72 289.054 469.72C289.054 469.72 307.545 483.242 330.215 481.479C352.885 479.715 389.266 473.247 389.266 473.247V373.964C389.266 359.145 376.728 347.061 361.71 347.913C361.357 347.913 360.958 347.958 360.635 347.995L307.545 348.01Z" fill="#D2EFFF"/>
<path d="M330.809 495C336.737 495 341.543 490.263 341.543 484.42C341.543 478.577 336.737 473.84 330.809 473.84C324.881 473.84 320.075 478.577 320.075 484.42C320.075 490.263 324.881 495 330.809 495Z" fill="#88D4FE"/>
<path d="M389.266 490.295C395.194 490.295 400 485.559 400 479.715C400 473.872 395.194 469.135 389.266 469.135C383.338 469.135 378.532 473.872 378.532 479.715C378.532 485.559 383.338 490.295 389.266 490.295Z" fill="#88D4FE"/>
<path d="M89.8168 158.675C89.8168 158.675 85.6375 184.541 102.933 182.192C102.933 182.192 111.886 181.014 113.081 182.192C114.276 183.37 158.414 175.724 164.382 169.255C164.382 169.255 171.538 166.907 175.116 170.434C178.694 173.96 214.488 177.487 203.762 166.899C193.036 156.312 176.326 153.963 176.326 153.963L153.656 155.134C153.656 155.134 141.727 158.668 134.571 155.134C127.415 151.599 107.113 152.822 107.113 152.822L89.8168 158.675Z" fill="#F0D8DC"/>
<path d="M114.269 76.9444C114.269 76.9444 87.4265 79.9081 87.4265 118.102V166.899C87.4265 166.899 102.34 160.431 105.324 161.016C108.308 161.602 120.237 153.37 120.237 153.37C120.237 153.37 133.955 121.629 132.76 112.812C131.564 103.995 132.166 78.115 114.269 76.9444Z" fill="#739757"/>
<path d="M237.151 171.604L210.309 190.423L227.011 192.187L250.275 172.782L237.151 171.604Z" fill="#3F3D56"/>
<path d="M258.033 199.833C258.033 199.833 264.595 219.838 255.65 225.706C246.705 231.574 231.784 205.123 231.784 205.123C231.784 205.123 215.676 186.311 226.417 182.192C237.159 178.072 241.541 196.01 241.541 196.01L255.627 208.065L258.033 199.833Z" fill="#FFCFCF"/>
<path d="M217.172 114.865C230.348 114.865 241.03 108.151 241.03 99.8684C241.03 91.5863 230.348 84.8722 217.172 84.8722C203.995 84.8722 193.314 91.5863 193.314 99.8684C193.314 108.151 203.995 114.865 217.172 114.865Z" fill="#3F3D56"/>
<path d="M221.344 80.7601C230.896 80.7601 238.639 73.1272 238.639 63.7116C238.639 54.2959 230.896 46.663 221.344 46.663C211.791 46.663 204.048 54.2959 204.048 63.7116C204.048 73.1272 211.791 80.7601 221.344 80.7601Z" fill="#3F3D56"/>
<path d="M157.219 43.1289C169.901 43.1289 180.182 37.8645 180.182 31.3705C180.182 24.8765 169.901 19.6121 157.219 19.6121C144.536 19.6121 134.255 24.8765 134.255 31.3705C134.255 37.8645 144.536 43.1289 157.219 43.1289Z" fill="#3F3D56"/>
<path d="M135.744 53.1239C140.19 53.1239 143.794 44.3034 143.794 33.4228C143.794 22.5423 140.19 13.7218 135.744 13.7218C131.298 13.7218 127.693 22.5423 127.693 33.4228C127.693 44.3034 131.298 53.1239 135.744 53.1239Z" fill="#3F3D56"/>
<path d="M15.9128 498.49C18.1678 494.408 15.6121 489.406 12.6957 485.761C9.7792 482.116 6.2163 478.352 6.29147 473.692C6.40422 467.023 13.5826 463.089 19.3179 459.555C23.5746 456.932 27.5007 453.82 31.0138 450.286C32.4881 448.928 33.7048 447.323 34.6068 445.544C35.7944 442.936 35.7644 439.972 35.6892 437.112C35.4386 427.599 34.9601 418.095 34.2535 408.602" stroke="#E6A285" stroke-width="4" stroke-miterlimit="10"/>
<path d="M45.1602 408.076C45.0803 406.334 44.5563 404.64 43.6366 403.151C42.717 401.662 41.4313 400.425 39.8985 399.555L37.5383 404.164L37.6134 398.592C35.474 397.973 33.1902 398.039 31.0916 398.782C28.9929 399.524 27.1878 400.905 25.9367 402.724C24.6856 404.544 24.0532 406.708 24.1306 408.905C24.208 411.101 24.9913 413.217 26.3675 414.946C27.7437 416.676 29.6416 417.929 31.7875 418.527C33.9334 419.124 36.2164 419.034 38.307 418.27C40.3977 417.506 42.188 416.106 43.4198 414.274C44.6515 412.442 45.2609 410.271 45.1602 408.076Z" fill="#57B894"/>
<path d="M26.3685 478.463C25.2619 480.577 23.4518 482.252 21.2414 483.207C19.0311 484.162 16.5549 484.339 14.2278 483.709C11.9007 483.079 9.86408 481.679 8.45938 479.744C7.05468 477.81 6.36721 475.458 6.51218 473.084C6.65714 470.709 7.62574 468.456 9.25564 466.702C10.8855 464.947 13.0777 463.798 15.4647 463.447C17.8517 463.097 20.2885 463.565 22.3667 464.775C24.4449 465.984 26.0382 467.861 26.8796 470.091L20.2875 475.373L27.5411 473.714C27.5428 475.367 27.1406 476.996 26.3685 478.463Z" fill="#57B894"/>
<path d="M21.1068 458.273C19.7221 458.34 18.3376 458.136 17.033 457.674C15.7283 457.211 14.5293 456.5 13.5046 455.579C12.4799 454.659 11.6499 453.548 11.0621 452.31C10.4744 451.072 10.1406 449.732 10.0798 448.367C9.99662 446.74 10.3084 445.117 10.9894 443.632C11.621 442.243 12.5541 441.006 13.7229 440.01C14.8917 439.014 16.2679 438.283 17.7544 437.868L17.7018 442.158L20.0846 437.498C21.4693 437.431 22.8537 437.635 24.1584 438.097C25.463 438.559 26.6621 439.271 27.6868 440.192C28.7115 441.112 29.5415 442.223 30.1292 443.461C30.717 444.699 31.0508 446.039 31.1115 447.404C31.1733 448.604 31.0206 449.805 30.6605 450.953C30.0257 452.994 28.7676 454.792 27.0579 456.102C25.3481 457.412 23.2699 458.17 21.1068 458.273Z" fill="#57B894"/>
<path d="M46.7462 441.476C45.1269 441.535 43.5157 441.224 42.0382 440.568C40.5607 439.912 39.2568 438.929 38.2283 437.695C37.1997 436.461 36.4741 435.009 36.1082 433.453C35.7423 431.897 35.7458 430.279 36.1186 428.724C36.4914 427.17 37.2233 425.721 38.2573 424.491C39.2914 423.262 40.5995 422.284 42.0799 421.634C43.5603 420.985 45.1728 420.681 46.7919 420.746C48.411 420.812 49.9928 421.245 51.4141 422.012L49.5499 427.051L53.3835 423.42C54.9333 424.802 56.0304 426.608 56.5351 428.607C57.0397 430.606 56.929 432.709 56.217 434.645C55.505 436.582 54.224 438.266 52.5373 439.483C50.8506 440.7 48.8346 441.393 46.7462 441.476Z" fill="#57B894"/>
<path opacity="0.1" d="M43.7396 410.847C41.3117 411.114 38.9364 411.862 36.4935 412.01C34.0506 412.158 31.3671 411.58 29.8262 409.706C28.9918 408.698 28.5709 407.424 27.8719 406.327C27.2051 405.303 26.2941 404.456 25.2185 403.86C24.5764 405.172 24.2218 406.602 24.1778 408.058C24.1338 409.514 24.4014 410.963 24.9631 412.31C25.5249 413.657 26.3682 414.873 27.4381 415.878C28.5081 416.882 29.7807 417.654 31.1732 418.141C32.5656 418.629 34.0466 418.822 35.5198 418.708C36.993 418.594 38.4253 418.176 39.7235 417.48C41.0217 416.784 42.1567 415.826 43.0546 414.67C43.9525 413.513 44.5931 412.182 44.9347 410.765C44.5363 410.78 44.1379 410.81 43.7396 410.847Z" fill="black"/>
<path opacity="0.1" d="M46.7462 441.476C44.9311 441.554 43.1263 441.17 41.5059 440.36C39.8855 439.55 38.5043 438.342 37.4956 436.852C36.487 435.363 35.8849 433.642 35.7475 431.857C35.6102 430.071 35.9422 428.28 36.7115 426.658C37.5528 427.213 38.2755 427.925 38.8387 428.755C39.5903 429.874 40.0413 431.163 40.9283 432.193C42.5669 434.097 45.3782 434.719 47.9188 434.601C50.4595 434.482 52.9249 433.778 55.4355 433.549C55.7888 433.549 56.1496 433.489 56.5029 433.482C55.9804 435.679 54.745 437.649 52.9843 439.091C51.2235 440.534 49.0334 441.372 46.7462 441.476Z" fill="black"/>
<path opacity="0.1" d="M21.1068 458.273C19.7221 458.34 18.3376 458.136 17.033 457.674C15.7283 457.211 14.5293 456.499 13.5046 455.579C12.4799 454.658 11.6499 453.547 11.0621 452.31C10.4744 451.072 10.1406 449.732 10.0798 448.367C9.99662 446.74 10.3084 445.117 10.9894 443.632C11.8663 444.194 12.6307 444.91 13.2444 445.744C14.0637 446.885 14.5748 448.196 15.4994 449.249C17.2808 451.205 20.2725 451.894 22.971 451.827C25.6695 451.76 28.0973 451.138 30.6906 450.945C30.0553 452.992 28.7933 454.795 27.0775 456.107C25.3616 457.419 23.2761 458.175 21.1068 458.273Z" fill="black"/>
<path opacity="0.1" d="M26.3685 478.463C25.8034 479.707 24.9951 480.83 23.9899 481.767C22.9847 482.703 21.8021 483.435 20.5098 483.921C19.2175 484.407 17.8407 484.638 16.458 484.6C15.0753 484.561 13.7139 484.255 12.4514 483.698C11.1889 483.141 10.05 482.344 9.0999 481.353C8.14975 480.362 7.40691 479.197 6.91378 477.923C6.42065 476.649 6.1869 475.292 6.22586 473.929C6.26482 472.566 6.57574 471.224 7.14085 469.979C8.00831 470.542 8.78817 471.226 9.45598 472.01C10.4557 473.217 11.1172 474.581 12.2747 475.714C14.432 477.804 17.9122 478.678 21.0166 478.745C22.8046 478.752 24.5915 478.658 26.3685 478.463Z" fill="black"/>
<path d="M1.52588e-05 493.793C1.52588e-05 493.793 8.32848 493.541 10.8391 491.777C13.3496 490.014 23.6174 487.91 24.2714 490.74C24.9253 493.57 36.7791 504.818 27.3833 504.862C17.9874 504.906 5.53979 503.417 3.03674 501.898C0.533683 500.379 1.52588e-05 493.793 1.52588e-05 493.793Z" fill="#E6A285"/>
<path opacity="0.2" d="M27.5486 503.877C18.1453 503.951 5.70516 502.432 3.2021 500.913C1.29287 499.772 0.533696 495.66 0.278129 493.763H1.52588e-05C1.52588e-05 493.763 0.526183 500.379 3.00669 501.913C5.48719 503.447 17.9498 504.936 27.3532 504.877C30.0667 504.877 30.9988 503.906 30.9537 502.491C30.6004 503.328 29.5706 503.862 27.5486 503.877Z" fill="black"/>
</g>
<defs>
<clipPath id="clip0">
<rect width="400" height="510.13" fill="white"/>
</clipPath>
</defs>
</svg>
